<svg xmlns="http://www.w3.org/2000/svg" viewBox="0 0 1161.59 201.02"><defs><style>.cls-1{isolation:isolate;}</style></defs><title>Asset 1taxonomy-title</title><g id="Layer_2" data-name="Layer 2"><g id="Layer_1-2" data-name="Layer 1"><g id="Taxonomy_of_Dance" data-name="Taxonomy of Dance" class="cls-1"><g class="cls-1"><path d="M86.28,37.44h-.12C77.16,16.8,67.08,7,56.28,5.64V88.08h10.8V90h-48V88.08h10.8V5.64C19.2,7,9.12,16.8.12,37.44H0V3.6H86.28Z"/><path d="M148,88.08V90H118V83.16c-5.64,4.8-12,8-18.6,8-7.8,0-13.08-4.44-13.08-12,0-11,11.76-18.36,31.68-20.52,0-13.2-5.28-19.8-14.4-19.8a19.87,19.87,0,0,0-13.2,4.56l-.6-.6c8.16-9.12,17-14,29-14,15.12,0,23.16,8.64,23.16,26V88.08Zm-30-6.6V60.24c-7.2,2-10,6.6-10,13,0,5.64,2.4,8.64,7.2,8.64A13.38,13.38,0,0,0,118,81.48Z"/><path d="M215.28,88.2h5.4V90H182.52V88.2h6l-14.4-22.92L162.72,88.2h7.56V90H151V88.2h4.8l17-25L156.36,37.08,148.8,31.2H190l-6.84,5.88L195,55.92l11.64-18.84L197.4,31.2h23.52l-8,5.88-16.8,20.64Z"/><path d="M220.68,59.64c0-17.16,13.44-30.84,33-30.84,19.8,0,34.08,12,34.08,30.84,0,17.52-11.16,31.56-34,31.56C236.52,91.2,220.68,79,220.68,59.64Zm51.48,21.12c0-10.08-20.16-47.64-30.72-47.64-3,0-4.8,2.16-4.8,5.88,0,11.76,20.76,47.88,30.6,47.88C270.48,86.88,272.16,84.84,272.16,80.76Z"/><path d="M368.64,88.08V90h-34.8V88.08h4.8V52c0-9.36-2.28-12.48-7.2-12.48a17.71,17.71,0,0,0-7.2,1.8v46.8H329V90h-34.8V88.08h6V44.28L293.4,38.4l30.84-10.8v12C332,32.88,339,28.2,347.16,28.2c10.2,0,15.48,6.36,15.48,18.6V88.08Z"/><path d="M373.8,59.64c0-17.16,13.44-30.84,33-30.84,19.8,0,34.08,12,34.08,30.84,0,17.52-11.16,31.56-34,31.56C389.64,91.2,373.8,79,373.8,59.64Zm51.48,21.12c0-10.08-20.16-47.64-30.72-47.64-3,0-4.8,2.16-4.8,5.88,0,11.76,20.76,47.88,30.6,47.88C423.6,86.88,425.28,84.84,425.28,80.76Z"/><path d="M558.72,88.08V90h-34.8V88.08h4.8V52c0-9.36-1.44-12.48-6.6-12.48a16.57,16.57,0,0,0-7.44,1.8A38.76,38.76,0,0,1,515,46.8V88.08h4.8V90h-33.6V88.08H491V52c0-9.36-1.44-12.48-6.6-12.48A16.41,16.41,0,0,0,477.36,41v47h4.8V90h-34.8V88.08h6V44.28l-6.84-5.88,30.84-10.8v12c9.72-7.8,16.08-11.4,22.8-11.4,8.16,0,12.72,4.08,14.28,11.88C524.52,31.92,531,28.2,537.84,28.2c10.2,0,14.88,6.36,14.88,18.6V88.08Z"/><path d="M627.6,31.2l-8,5.88L593.52,90l-14.28,31.31-22.8-16,34.92-16L563,37.08l-8.16-5.88H597l-8,5.88,13.32,31.56,11.28-31.56-9.24-5.88Z"/><path d="M658,59.64c0-17.16,13.44-30.84,33-30.84,19.8,0,34.08,12,34.08,30.84,0,17.52-11.16,31.56-34,31.56C673.8,91.2,658,79,658,59.64Zm51.48,21.12c0-10.08-20.16-47.64-30.72-47.64-3,0-4.8,2.16-4.8,5.88,0,11.76,20.76,47.88,30.6,47.88C707.76,86.88,709.44,84.84,709.44,80.76Z"/><path d="M785.52,3.6,782.28,27h-.12l-9.72-14.16C769,7.68,765.12,1.56,763.56,2.16s-1.92,4.56-1.92,12.24V31.2h15.48v1.92H761.64v55h10.2V90h-40.2V88.08h6v-55h-7.2V31.2h7.32C739.08,9,751.32,0,767.76,0A46.94,46.94,0,0,1,785.52,3.6Z"/><path d="M896.75,45.72C896.75,74.16,877,90,845.28,90H805.56V88.08h9.6v-78L804.48,3.6h42.35C878.39,3.6,896.75,18.36,896.75,45.72Zm-27.6.12c0-26.28-8.88-40.32-24.6-40.32h-3V88.08h1.92C859,88.08,869.15,72.48,869.15,45.84Z"/><path d="M962.63,88.08V90h-30V83.16c-5.64,4.8-12,8-18.59,8-7.8,0-13.08-4.44-13.08-12,0-11,11.75-18.36,31.67-20.52,0-13.2-5.27-19.8-14.4-19.8A19.86,19.86,0,0,0,905,43.44l-.6-.6c8.16-9.12,17-14,29-14,15.12,0,23.16,8.64,23.16,26V88.08Zm-30-6.6V60.24c-7.19,2-10,6.6-10,13,0,5.64,2.4,8.64,7.21,8.64A13.38,13.38,0,0,0,932.63,81.48Z"/><path d="M1041.47,88.08V90h-34.8V88.08h4.8V52c0-9.36-2.28-12.48-7.2-12.48a17.71,17.71,0,0,0-7.2,1.8v46.8h4.8V90H967.08V88.08h6V44.28l-6.84-5.88,30.84-10.8v12c7.8-6.72,14.76-11.4,22.92-11.4,10.2,0,15.48,6.36,15.48,18.6V88.08Z"/><path d="M1046.64,61.2c.12-17.64,12.72-32.4,33.11-32.4a55.67,55.67,0,0,1,20.64,3.84l-4.68,33.48h-.12c-11.16-21.12-21.6-32.64-28.8-32.64-3,0-4.79,2.16-4.79,6.48,0,19.32,19,39.72,35.87,39.72a10.46,10.46,0,0,0,3.6-.48l.12.12c-5.4,8.16-14.16,11.88-24.84,11.88C1060.44,91.2,1046.52,79.68,1046.64,61.2Z"/><path d="M1161.59,79.2c-5,7.68-13.07,12-24.23,12-16.92,0-30.84-11.76-30.84-30.36,0-17.52,11.76-32,31-32,11.29,0,19.08,6.6,19.08,15.36,0,10-7.67,18.72-22.08,24.12C1141.31,75,1150,79.44,1158,79.44a16.22,16.22,0,0,0,3.48-.36ZM1121.4,40.08c0,10,5.16,20,12.36,27.48,3.36-4.32,4.68-9.12,4.68-15.24,0-10.44-7-19.32-12.12-19.32C1123.2,33,1121.4,35.64,1121.4,40.08Z"/></g></g><g id="A_study_in_dance_and_data_visualization" data-name="A study in dance and data visualization" class="cls-1"><g class="cls-1"><path d="M261.84,187v3H250.18v-3h2.7l.23-.22-2-4.77H240.24l-1.85,4.77.23.22h2.7v3h-9.13v-3h2.47l.22-.22,10.76-26H248l11.2,26,.22.22Zm-12-8-4.27-10.08h-.23l-3.91,10.08Z"/><path d="M272.64,189v-6.48h.58l2.48,3.06a5.41,5.41,0,0,0,4.05,2.3c1.66,0,2.34-.86,2.34-1.89,0-1.89-2.34-2.48-4.59-3.78-3.42-2-4.82-3.56-4.82-6.3,0-3.42,3-5.45,7.47-5.45a14.65,14.65,0,0,1,5.31,1v6.07h-.58l-2.61-3.1a4.17,4.17,0,0,0-2.84-1.31c-1.39,0-2.11.81-2.11,1.76,0,1.66,1.89,2.56,4.32,3.78,3.46,1.75,5.08,3.37,5.08,6,0,3.64-2.7,5.85-7.33,5.85A17.7,17.7,0,0,1,272.64,189Z"/><path d="M290.55,184.55V174.2l-.23-.22H287.8v-.59l7.34-7.65h.58v5.36h6V174h-6v8.41c0,3.6.68,4.86,2.48,4.86a7.9,7.9,0,0,0,3.33-1l.85,1.58a10.64,10.64,0,0,1-6.75,2.61C292.39,190.45,290.55,188.87,290.55,184.55Z"/><path d="M325.24,187.12V190h-7.38v-2.7c-2.2,1.84-4,3.15-6.61,3.15-3.38,0-5.18-1.89-5.18-5.31v-8.78l-2.88-1.8V174l7.43-3.6.63.32V182.3c0,3.2,1,4.19,3.51,4.19a11.2,11.2,0,0,0,3.1-.45v-10l-2.88-1.8v-.54l7.43-3.6.63.31v16.47l.18.23Z"/><path d="M348.46,187.12V190H341v-2.34c-2.16,1.62-3.83,2.79-6.12,2.79-4.32,0-7-4.14-7-9.23,0-6.16,4.05-10.8,9.72-10.8a8.1,8.1,0,0,1,3.38.68v-7.56l-2.88-1.8v-.54l7.47-3.6.58.31v29l.23.23Zm-7.42-1V175.46a3.93,3.93,0,0,0-3.51-2.34c-2.66,0-4.1,2.43-4.1,6.66,0,4.5,1.76,6.8,4.77,6.8A11.7,11.7,0,0,0,341,186.17Z"/><path d="M350.4,198.55v-.41l9.18-7.78L352,174.2l-2.92-2.47v-.63h11.07v.58l-2.52,2.52,4.18,9.59h.27l4.23-9.59-2.47-2.47v-.63h8.5v.58l-2.88,2.52L361.56,191l-5.13,10Z"/><path d="M381.81,187.12h2l.23-.23V176l-2.88-1.8v-.54l7.47-3.55.58.27v16.51l.23.23h2V190h-9.67Zm1.53-23.4a3.13,3.13,0,1,1,3.15,3.15A3.12,3.12,0,0,1,383.34,163.72Z"/><path d="M415.38,187.16V190H405.7v-2.88h2l.23-.23v-8c0-3.6-1-4.59-3.6-4.59a14,14,0,0,0-3.47.54v12.06l.23.23h2V190h-9.67v-2.88h2l.22-.23V176l-2.88-1.76v-.58l6.75-3.47.59.32.54,2.65c2.65-1.75,4.54-2.7,7-2.7,3.2,0,5.44,1.58,5.44,5.27v11.2l.23.27Z"/><path d="M446.87,187.12V190h-7.42v-2.34c-2.16,1.62-3.83,2.79-6.12,2.79-4.32,0-7-4.14-7-9.23,0-6.16,4-10.8,9.72-10.8a8.1,8.1,0,0,1,3.38.68v-7.56l-2.88-1.8v-.54l7.47-3.6.58.31v29l.23.23Zm-7.42-1V175.46a3.93,3.93,0,0,0-3.51-2.34c-2.65,0-4.1,2.43-4.1,6.66,0,4.5,1.76,6.8,4.77,6.8A11.7,11.7,0,0,0,439.45,186.17Z"/><path d="M466.76,187.12V190h-7.42v-1.58a10.21,10.21,0,0,1-5.58,2.07c-2.16,0-4.46-1.12-4.46-4.45s2.25-6,10-6.8v-.81c0-3.06-1-4.63-3.65-4.63a8.89,8.89,0,0,0-4.72,1.66l-.86-1.71a10.59,10.59,0,0,1,7.79-3.33c4.72,0,6.61,2.7,6.61,7.7v8.77l.23.23Zm-7.42-.27v-5.4c-3.51.31-4.95,1.3-5,3.33a2.26,2.26,0,0,0,2.57,2.47A10.09,10.09,0,0,0,459.34,186.85Z"/><path d="M490.84,187.16V190h-9.68v-2.88h2l.22-.23v-8c0-3.6-1-4.59-3.6-4.59a13.83,13.83,0,0,0-3.46.54v12.06l.22.23h2V190h-9.68v-2.88h2l.22-.23V176l-2.88-1.76v-.58l6.75-3.47.59.32.54,2.65c2.65-1.75,4.54-2.7,7-2.7,3.2,0,5.45,1.58,5.45,5.27v11.2l.22.27Z"/><path d="M493,180.91c0-5.9,3.92-10.49,10.22-10.49a15.36,15.36,0,0,1,5.26,1v7.25h-.58l-3.42-4.59a3.66,3.66,0,0,0-2.48-1c-2.29,0-3.51,2.16-3.51,6.17,0,5.62,2.93,8.14,6,8.14a7.33,7.33,0,0,0,3.92-1.08l.85,1.58a10.4,10.4,0,0,1-7.06,2.61C496.64,190.45,493,186.67,493,180.91Z"/><path d="M527.24,186.26l.86,1.58a11.62,11.62,0,0,1-7.25,2.61c-5.35,0-9.49-3.78-9.49-9.68s4-10.35,9.49-10.35c4.59,0,7.43,3.11,7.43,7.56a12.23,12.23,0,0,1-.23,2.43H516.89c.32,4.32,2.39,7,6.08,7A9.54,9.54,0,0,0,527.24,186.26Zm-10.35-8.19h6.39c-.09-3.78-1.21-5-3.06-5S517.07,174.79,516.89,178.07Z"/><path d="M556.58,187.12V190h-7.42v-1.58a10.21,10.21,0,0,1-5.58,2.07c-2.16,0-4.46-1.12-4.46-4.45s2.25-6,10-6.8v-.81c0-3.06-1-4.63-3.65-4.63a8.89,8.89,0,0,0-4.72,1.66l-.86-1.71a10.59,10.59,0,0,1,7.79-3.33c4.72,0,6.61,2.7,6.61,7.7v8.77l.23.23Zm-7.42-.27v-5.4c-3.51.31-4.95,1.3-5,3.33a2.26,2.26,0,0,0,2.57,2.47A10.09,10.09,0,0,0,549.16,186.85Z"/><path d="M580.66,187.16V190H571v-2.88h2l.22-.23v-8c0-3.6-1-4.59-3.6-4.59a13.83,13.83,0,0,0-3.46.54v12.06l.22.23h2V190h-9.68v-2.88h2l.22-.23V176l-2.88-1.76v-.58l6.75-3.47.59.32.54,2.65c2.65-1.75,4.54-2.7,7-2.7,3.2,0,5.45,1.58,5.45,5.27v11.2l.22.27Z"/><path d="M603.61,187.12V190h-7.43v-2.34c-2.16,1.62-3.82,2.79-6.12,2.79-4.32,0-7-4.14-7-9.23,0-6.16,4-10.8,9.72-10.8a8,8,0,0,1,3.37.68v-7.56l-2.88-1.8v-.54l7.47-3.6.59.31v29l.22.23Zm-7.43-1V175.46a3.92,3.92,0,0,0-3.51-2.34c-2.65,0-4.09,2.43-4.09,6.66,0,4.5,1.75,6.8,4.77,6.8A11.56,11.56,0,0,0,596.18,186.17Z"/><path d="M635.29,187.12V190h-7.43v-2.34c-2.16,1.62-3.82,2.79-6.12,2.79-4.32,0-7-4.14-7-9.23,0-6.16,4.05-10.8,9.72-10.8a8,8,0,0,1,3.37.68v-7.56l-2.88-1.8v-.54l7.47-3.6.59.31v29l.22.23Zm-7.43-1V175.46a3.92,3.92,0,0,0-3.51-2.34c-2.65,0-4.09,2.43-4.09,6.66,0,4.5,1.75,6.8,4.77,6.8A11.56,11.56,0,0,0,627.86,186.17Z"/><path d="M655.17,187.12V190h-7.42v-1.58a10.21,10.21,0,0,1-5.58,2.07c-2.16,0-4.46-1.12-4.46-4.45s2.25-6,10-6.8v-.81c0-3.06-1-4.63-3.65-4.63a8.89,8.89,0,0,0-4.72,1.66l-.85-1.71a10.55,10.55,0,0,1,7.78-3.33c4.72,0,6.61,2.7,6.61,7.7v8.77l.23.23Zm-7.42-.27v-5.4c-3.51.31-5,1.3-5,3.33a2.26,2.26,0,0,0,2.57,2.47A10.09,10.09,0,0,0,647.75,186.85Z"/><path d="M659,184.55V174.2l-.22-.22h-2.53v-.59l7.34-7.65h.58v5.36h6V174h-6v8.41c0,3.6.68,4.86,2.48,4.86a7.9,7.9,0,0,0,3.33-1l.85,1.58a10.64,10.64,0,0,1-6.75,2.61C660.84,190.45,659,188.87,659,184.55Z"/><path d="M689.82,187.12V190H682.4v-1.58a10.21,10.21,0,0,1-5.58,2.07c-2.16,0-4.46-1.12-4.46-4.45s2.25-6,10-6.8v-.81c0-3.06-1-4.63-3.65-4.63a8.89,8.89,0,0,0-4.72,1.66l-.86-1.71a10.59,10.59,0,0,1,7.79-3.33c4.72,0,6.61,2.7,6.61,7.7v8.77l.23.23Zm-7.42-.27v-5.4c-3.51.31-4.95,1.3-5,3.33a2.26,2.26,0,0,0,2.57,2.47A10.09,10.09,0,0,0,682.4,186.85Z"/><path d="M701.52,174.2l-2.74-2.47v-.63h10.89v.58l-2.52,2.52,4.14,9.68h.13l4.46-9.68-2.52-2.47v-.63h8.41v.58L719,174.2l-7.79,16.25h-2.07Z"/><path d="M722.72,187.12h2l.23-.23V176l-2.88-1.8v-.54l7.47-3.55.58.27v16.51l.23.23h2V190h-9.67Zm1.53-23.4a3.13,3.13,0,1,1,3.15,3.15A3.12,3.12,0,0,1,724.25,163.72Z"/><path d="M734.87,189v-6.48h.58l2.48,3.06a5.41,5.41,0,0,0,4.05,2.3c1.66,0,2.34-.86,2.34-1.89,0-1.89-2.34-2.48-4.59-3.78-3.42-2-4.82-3.56-4.82-6.3,0-3.42,3-5.45,7.47-5.45a14.65,14.65,0,0,1,5.31,1v6.07h-.58l-2.61-3.1a4.17,4.17,0,0,0-2.84-1.31c-1.39,0-2.11.81-2.11,1.76,0,1.66,1.89,2.56,4.32,3.78,3.46,1.75,5.08,3.37,5.08,6,0,3.64-2.7,5.85-7.33,5.85A17.7,17.7,0,0,1,734.87,189Z"/><path d="M772.31,187.12V190h-7.38v-2.7c-2.21,1.84-4,3.15-6.62,3.15-3.37,0-5.17-1.89-5.17-5.31v-8.78l-2.88-1.8V174l7.42-3.6.63.32V182.3c0,3.2,1,4.19,3.51,4.19a11.28,11.28,0,0,0,3.11-.45v-10l-2.88-1.8v-.54l7.42-3.6.63.31v16.47l.18.23Z"/><path d="M791.84,187.12V190h-7.43v-1.58a10.16,10.16,0,0,1-5.58,2.07,4.11,4.11,0,0,1-4.45-4.45c0-3.38,2.25-6,10-6.8v-.81c0-3.06-1-4.63-3.64-4.63a8.89,8.89,0,0,0-4.73,1.66l-.85-1.71a10.55,10.55,0,0,1,7.78-3.33c4.73,0,6.62,2.7,6.62,7.7v8.77l.22.23Zm-7.43-.27v-5.4c-3.51.31-4.95,1.3-5,3.33,0,1.71,1,2.47,2.56,2.47A9.93,9.93,0,0,0,784.41,186.85Z"/><path d="M793.86,187.12h2l.22-.23V163.54l-2.88-1.8v-.54l7.43-3.6.63.31v29l.22.23h2V190h-9.68Z"/><path d="M805.74,187.12h2l.22-.23V176l-2.88-1.8v-.54l7.47-3.55.59.27v16.51l.22.23h2V190h-9.68Zm1.53-23.4a3.13,3.13,0,1,1,3.15,3.15A3.13,3.13,0,0,1,807.27,163.72Z"/><path d="M817.49,189.23l9.81-15V174h-6L818.52,178H818V171.1h16.25V172l-9.5,15v.18h6.48l2.61-4.05h.54V190H817.49Z"/><path d="M854.43,187.12V190H847v-1.58a10.21,10.21,0,0,1-5.58,2.07c-2.16,0-4.46-1.12-4.46-4.45s2.25-6,10-6.8v-.81c0-3.06-1-4.63-3.65-4.63a8.89,8.89,0,0,0-4.72,1.66l-.86-1.71a10.59,10.59,0,0,1,7.79-3.33c4.72,0,6.61,2.7,6.61,7.7v8.77l.23.23Zm-7.42-.27v-5.4c-3.51.31-5,1.3-5,3.33,0,1.71,1,2.47,2.57,2.47A10.09,10.09,0,0,0,847,186.85Z"/><path d="M858.26,184.55V174.2L858,174h-2.52v-.59l7.34-7.65h.58v5.36h6V174h-6v8.41c0,3.6.68,4.86,2.48,4.86a7.82,7.82,0,0,0,3.32-1l.86,1.58a10.64,10.64,0,0,1-6.75,2.61C860.1,190.45,858.26,188.87,858.26,184.55Z"/><path d="M871.84,187.12h2l.22-.23V176l-2.88-1.8v-.54l7.47-3.55.59.27v16.51l.23.23h2V190h-9.68Zm1.54-23.4a3.13,3.13,0,1,1,3.15,3.15A3.12,3.12,0,0,1,873.38,163.72Z"/><path d="M883.54,180.91c0-5.94,4-10.49,9.81-10.49,5.27,0,9.27,3.65,9.27,9.77s-4.09,10.26-9.81,10.26C887.32,190.45,883.54,186.67,883.54,180.91Zm13.59,1c0-5.13-2-8.73-4.68-8.73-2.11,0-3.42,2.16-3.42,5.85,0,5.13,2,8.73,4.68,8.73C895.83,187.79,897.13,185.63,897.13,181.94Z"/><path d="M927.19,187.16V190h-9.67v-2.88h2l.23-.23v-8c0-3.6-1-4.59-3.6-4.59a14,14,0,0,0-3.47.54v12.06l.23.23h2V190h-9.67v-2.88h2l.23-.23V176l-2.88-1.76v-.58l6.75-3.47.58.32.54,2.65c2.66-1.75,4.55-2.7,7-2.7,3.19,0,5.44,1.58,5.44,5.27v11.2l.23.27Z"/></g></g></g></g></svg>